<?xml version="1.0" encoding="UTF-8"?>
<svg id="Capa_2" data-name="Capa 2" xmlns="http://www.w3.org/2000/svg" xmlns:xlink="http://www.w3.org/1999/xlink" viewBox="0 0 441.1 484.15">
  <defs>
    <style>
      .cls-1 {
        stroke: url(#Degradado_sin_nombre_9480);
      }

      .cls-1, .cls-2, .cls-3, .cls-4, .cls-5, .cls-6, .cls-7, .cls-8, .cls-9, .cls-10, .cls-11, .cls-12, .cls-13, .cls-14, .cls-15, .cls-16, .cls-17, .cls-18, .cls-19, .cls-20, .cls-21, .cls-22, .cls-23, .cls-24, .cls-25, .cls-26, .cls-27, .cls-28, .cls-29, .cls-30, .cls-31, .cls-32, .cls-33, .cls-34, .cls-35, .cls-36, .cls-37, .cls-38, .cls-39, .cls-40, .cls-41, .cls-42, .cls-43, .cls-44, .cls-45, .cls-46, .cls-47, .cls-48, .cls-49, .cls-50, .cls-51, .cls-52, .cls-53 {
        fill: none;
        stroke-linecap: round;
        stroke-linejoin: round;
        stroke-width: .5px;
      }

      .cls-2 {
        stroke: url(#Degradado_sin_nombre_9493);
      }

      .cls-3 {
        stroke: url(#Degradado_sin_nombre_3-25);
      }

      .cls-4 {
        stroke: url(#Degradado_sin_nombre_9494);
      }

      .cls-5 {
        stroke: url(#Degradado_sin_nombre_3-8);
      }

      .cls-6 {
        stroke: url(#Degradado_sin_nombre_3-3);
      }

      .cls-7 {
        stroke: url(#Degradado_sin_nombre_3-17);
      }

      .cls-8 {
        stroke: url(#Degradado_sin_nombre_9497);
      }

      .cls-9 {
        stroke: url(#Degradado_sin_nombre_3-9);
      }

      .cls-10 {
        stroke: url(#Degradado_sin_nombre_9475);
      }

      .cls-11 {
        stroke: url(#Degradado_sin_nombre_3-13);
      }

      .cls-12 {
        stroke: url(#Degradado_sin_nombre_9492);
      }

      .cls-13 {
        stroke: url(#Degradado_sin_nombre_9489);
      }

      .cls-14 {
        stroke: url(#Degradado_sin_nombre_9490);
      }

      .cls-15 {
        stroke: url(#Degradado_sin_nombre_9479);
      }

      .cls-16 {
        stroke: url(#Degradado_sin_nombre_9482);
      }

      .cls-17 {
        stroke: url(#Degradado_sin_nombre_3-5);
      }

      .cls-18 {
        stroke: url(#Degradado_sin_nombre_9487);
      }

      .cls-19 {
        stroke: url(#Degradado_sin_nombre_3-24);
      }

      .cls-20 {
        stroke: url(#Degradado_sin_nombre_3-14);
      }

      .cls-21 {
        stroke: url(#Degradado_sin_nombre_3-27);
      }

      .cls-22 {
        stroke: url(#Degradado_sin_nombre_2);
      }

      .cls-23 {
        stroke: url(#Degradado_sin_nombre_3-6);
      }

      .cls-24 {
        stroke: url(#Degradado_sin_nombre_3-22);
      }

      .cls-25 {
        stroke: url(#Degradado_sin_nombre_3-20);
      }

      .cls-26 {
        stroke: url(#Degradado_sin_nombre_9476);
      }

      .cls-27 {
        stroke: url(#Degradado_sin_nombre_3-2);
      }

      .cls-28 {
        stroke: url(#Degradado_sin_nombre_9477);
      }

      .cls-29 {
        stroke: url(#Degradado_sin_nombre_9478);
      }

      .cls-30 {
        stroke: url(#Degradado_sin_nombre_3);
      }

      .cls-31 {
        stroke: url(#Degradado_sin_nombre_9473);
      }

      .cls-32 {
        stroke: url(#Degradado_sin_nombre_3-7);
      }

      .cls-33 {
        stroke: url(#Degradado_sin_nombre_3-15);
      }

      .cls-34 {
        stroke: url(#Degradado_sin_nombre_3-18);
      }

      .cls-35 {
        stroke: url(#Degradado_sin_nombre_9491);
      }

      .cls-36 {
        stroke: url(#Degradado_sin_nombre_3-10);
      }

      .cls-37 {
        stroke: url(#Degradado_sin_nombre_3-4);
      }

      .cls-38 {
        stroke: url(#Degradado_sin_nombre_9481);
      }

      .cls-39 {
        stroke: url(#Degradado_sin_nombre_3-26);
      }

      .cls-40 {
        stroke: url(#Degradado_sin_nombre_3-21);
      }

      .cls-41 {
        stroke: url(#Degradado_sin_nombre_9484);
      }

      .cls-42 {
        stroke: url(#Degradado_sin_nombre_3-23);
      }

      .cls-43 {
        stroke: url(#Degradado_sin_nombre_9483);
      }

      .cls-44 {
        stroke: url(#Degradado_sin_nombre_9486);
      }

      .cls-45 {
        stroke: url(#Degradado_sin_nombre_3-11);
      }

      .cls-46 {
        stroke: url(#Degradado_sin_nombre_9474);
      }

      .cls-47 {
        stroke: url(#Degradado_sin_nombre_3-16);
      }

      .cls-48 {
        stroke: url(#Degradado_sin_nombre_9488);
      }

      .cls-49 {
        stroke: url(#Degradado_sin_nombre_9485);
      }

      .cls-50 {
        stroke: url(#Degradado_sin_nombre_9496);
      }

      .cls-51 {
        stroke: url(#Degradado_sin_nombre_3-12);
      }

      .cls-52 {
        stroke: url(#Degradado_sin_nombre_9495);
      }

      .cls-53 {
        stroke: url(#Degradado_sin_nombre_3-19);
      }
    </style>
    <linearGradient id="Degradado_sin_nombre_3" data-name="Degradado sin nombre 3" x1="429.12" y1="425.8" x2="616.08" y2="425.8" gradientTransform="translate(645.55 -241.8) rotate(93.41)" gradientUnits="userSpaceOnUse">
      <stop offset="0" stop-color="#534feb"/>
      <stop offset="1" stop-color="#a52b50"/>
    </linearGradient>
    <linearGradient id="Degradado_sin_nombre_3-2" data-name="Degradado sin nombre 3" x1="387.77" y1="367.49" x2="581.12" y2="367.49" gradientTransform="translate(577.75 -211.69) rotate(92.56)" xlink:href="#Degradado_sin_nombre_3"/>
    <linearGradient id="Degradado_sin_nombre_3-3" data-name="Degradado sin nombre 3" x1="347.86" y1="307.6" x2="548.05" y2="307.6" gradientTransform="translate(509.94 -181.58) rotate(91.71)" xlink:href="#Degradado_sin_nombre_3"/>
    <linearGradient id="Degradado_sin_nombre_3-4" data-name="Degradado sin nombre 3" x1="309.41" y1="246.21" x2="516.98" y2="246.21" gradientTransform="translate(442.13 -151.46) rotate(90.86)" xlink:href="#Degradado_sin_nombre_3"/>
    <linearGradient id="Degradado_sin_nombre_3-5" data-name="Degradado sin nombre 3" x1="272.27" y1="183.4" x2="487.95" y2="183.4" gradientTransform="translate(374.32 -121.35) rotate(90)" xlink:href="#Degradado_sin_nombre_3"/>
    <linearGradient id="Degradado_sin_nombre_3-6" data-name="Degradado sin nombre 3" x1="236" y1="119.26" x2="460.94" y2="119.26" gradientTransform="translate(306.51 -91.23) rotate(89.14) scale(.99)" xlink:href="#Degradado_sin_nombre_3"/>
    <linearGradient id="Degradado_sin_nombre_3-7" data-name="Degradado sin nombre 3" x1="200.64" y1="53.88" x2="435.92" y2="53.88" gradientTransform="translate(238.7 -61.12) rotate(88.27) scale(.99)" xlink:href="#Degradado_sin_nombre_3"/>
    <linearGradient id="Degradado_sin_nombre_3-8" data-name="Degradado sin nombre 3" x1="166.74" y1="-12.66" x2="412.9" y2="-12.66" gradientTransform="translate(170.89 -31.01) rotate(87.4) scale(.98)" xlink:href="#Degradado_sin_nombre_3"/>
    <linearGradient id="Degradado_sin_nombre_3-9" data-name="Degradado sin nombre 3" x1="134.68" y1="-80.24" x2="391.91" y2="-80.24" gradientTransform="translate(103.09 -.89) rotate(86.53) scale(.98)" xlink:href="#Degradado_sin_nombre_3"/>
    <linearGradient id="Degradado_sin_nombre_3-10" data-name="Degradado sin nombre 3" x1="104.73" y1="-148.79" x2="372.96" y2="-148.79" gradientTransform="translate(35.28 29.22) rotate(85.66) scale(.98)" xlink:href="#Degradado_sin_nombre_3"/>
    <linearGradient id="Degradado_sin_nombre_3-11" data-name="Degradado sin nombre 3" x1="76.95" y1="-218.2" x2="356.06" y2="-218.2" gradientTransform="translate(-32.53 59.33) rotate(84.79) scale(.98)" xlink:href="#Degradado_sin_nombre_3"/>
    <linearGradient id="Degradado_sin_nombre_3-12" data-name="Degradado sin nombre 3" x1="51.38" y1="-288.35" x2="341.23" y2="-288.35" gradientTransform="translate(-100.34 89.45) rotate(83.91) scale(.98)" xlink:href="#Degradado_sin_nombre_3"/>
    <linearGradient id="Degradado_sin_nombre_3-13" data-name="Degradado sin nombre 3" x1="28.06" y1="-359.18" x2="328.5" y2="-359.18" gradientTransform="translate(-168.15 119.56) rotate(83.04) scale(.98)" xlink:href="#Degradado_sin_nombre_3"/>
    <linearGradient id="Degradado_sin_nombre_3-14" data-name="Degradado sin nombre 3" x1="7.03" y1="-430.54" x2="317.86" y2="-430.54" gradientTransform="translate(-235.96 149.68) rotate(82.16) scale(.98)" xlink:href="#Degradado_sin_nombre_3"/>
    <linearGradient id="Degradado_sin_nombre_3-15" data-name="Degradado sin nombre 3" x1="-11.66" y1="-502.32" x2="309.33" y2="-502.32" gradientTransform="translate(-303.77 179.79) rotate(81.28) scale(.98)" xlink:href="#Degradado_sin_nombre_3"/>
    <linearGradient id="Degradado_sin_nombre_3-16" data-name="Degradado sin nombre 3" x1="-28.01" y1="-574.54" x2="302.92" y2="-574.54" gradientTransform="translate(-371.57 209.9) rotate(80.41) scale(.98)" xlink:href="#Degradado_sin_nombre_3"/>
    <linearGradient id="Degradado_sin_nombre_3-17" data-name="Degradado sin nombre 3" x1="-42" y1="-647.12" x2="298.63" y2="-647.12" gradientTransform="translate(-439.38 240.02) rotate(79.53) scale(.98)" xlink:href="#Degradado_sin_nombre_3"/>
    <linearGradient id="Degradado_sin_nombre_3-18" data-name="Degradado sin nombre 3" x1="-53.63" y1="-719.96" x2="296.44" y2="-719.96" gradientTransform="translate(-507.19 270.13) rotate(78.66) scale(.98)" xlink:href="#Degradado_sin_nombre_3"/>
    <linearGradient id="Degradado_sin_nombre_3-19" data-name="Degradado sin nombre 3" x1="-62.9" y1="-792.97" x2="296.36" y2="-792.97" gradientTransform="translate(-575 300.24) rotate(77.79) scale(.98)" xlink:href="#Degradado_sin_nombre_3"/>
    <linearGradient id="Degradado_sin_nombre_3-20" data-name="Degradado sin nombre 3" x1="-69.83" y1="-866.03" x2="298.37" y2="-866.03" gradientTransform="translate(-642.81 330.36) rotate(76.92) scale(.98)" xlink:href="#Degradado_sin_nombre_3"/>
    <linearGradient id="Degradado_sin_nombre_3-21" data-name="Degradado sin nombre 3" x1="-74.42" y1="-939.06" x2="302.44" y2="-939.06" gradientTransform="translate(-710.62 360.47) rotate(76.05) scale(.99)" xlink:href="#Degradado_sin_nombre_3"/>
    <linearGradient id="Degradado_sin_nombre_3-22" data-name="Degradado sin nombre 3" x1="-76.7" y1="-1011.94" x2="308.57" y2="-1011.94" gradientTransform="translate(-778.43 390.59) rotate(75.18) scale(.99)" xlink:href="#Degradado_sin_nombre_3"/>
    <linearGradient id="Degradado_sin_nombre_3-23" data-name="Degradado sin nombre 3" x1="-76.7" y1="-1084.59" x2="316.7" y2="-1084.59" gradientTransform="translate(-846.23 420.7) rotate(74.32)" xlink:href="#Degradado_sin_nombre_3"/>
    <linearGradient id="Degradado_sin_nombre_3-24" data-name="Degradado sin nombre 3" x1="-74.46" y1="-1156.9" x2="326.81" y2="-1156.9" gradientTransform="translate(-914.04 450.81) rotate(73.46)" xlink:href="#Degradado_sin_nombre_3"/>
    <linearGradient id="Degradado_sin_nombre_3-25" data-name="Degradado sin nombre 3" x1="-70.03" y1="-1228.79" x2="338.86" y2="-1228.79" gradientTransform="translate(-981.85 480.93) rotate(72.61)" xlink:href="#Degradado_sin_nombre_3"/>
    <linearGradient id="Degradado_sin_nombre_3-26" data-name="Degradado sin nombre 3" x1="-63.44" y1="-1300.15" x2="352.79" y2="-1300.15" gradientTransform="translate(-1049.66 511.04) rotate(71.76)" xlink:href="#Degradado_sin_nombre_3"/>
    <linearGradient id="Degradado_sin_nombre_3-27" data-name="Degradado sin nombre 3" x1="-54.72" y1="-1370.91" x2="368.6" y2="-1370.91" gradientTransform="translate(-1117.47 541.15) rotate(70.91)" xlink:href="#Degradado_sin_nombre_3"/>
    <linearGradient id="Degradado_sin_nombre_9497" data-name="Degradado sin nombre 9497" x1="-34.69" y1="-1462.7" x2="407.82" y2="-1462.7" gradientTransform="translate(-1102.55 556.94) rotate(69.46) scale(.93)" gradientUnits="userSpaceOnUse">
      <stop offset="0" stop-color="#564ee5"/>
      <stop offset="0" stop-color="#564ee5"/>
      <stop offset="1" stop-color="#a22c56"/>
      <stop offset="1" stop-color="#a22c56"/>
    </linearGradient>
    <linearGradient id="Degradado_sin_nombre_9496" data-name="Degradado sin nombre 9496" x1="-5.38" y1="-1564.88" x2="458.19" y2="-1564.88" gradientTransform="translate(-1087.63 572.73) rotate(67.78) scale(.86)" gradientUnits="userSpaceOnUse">
      <stop offset="0" stop-color="#594cdf"/>
      <stop offset="0" stop-color="#594cdf"/>
      <stop offset="1" stop-color="#9f2e5c"/>
      <stop offset="1" stop-color="#9f2e5c"/>
    </linearGradient>
    <linearGradient id="Degradado_sin_nombre_9495" data-name="Degradado sin nombre 9495" x1="37.09" y1="-1680.42" x2="523.64" y2="-1680.42" gradientTransform="translate(-1072.72 588.52) rotate(65.81) scale(.8)" gradientUnits="userSpaceOnUse">
      <stop offset="0" stop-color="#5c4bd9"/>
      <stop offset="0" stop-color="#5c4bd9"/>
      <stop offset="1" stop-color="#9c2f62"/>
      <stop offset="1" stop-color="#9c2f62"/>
    </linearGradient>
    <linearGradient id="Degradado_sin_nombre_9494" data-name="Degradado sin nombre 9494" x1="85.11" y1="-1811.88" x2="609.69" y2="-1811.88" gradientTransform="translate(-1057.8 604.3) rotate(63.49) scale(.73)" gradientUnits="userSpaceOnUse">
      <stop offset="0" stop-color="#6049d3"/>
      <stop offset="0" stop-color="#6049d3"/>
      <stop offset="1" stop-color="#983168"/>
      <stop offset="1" stop-color="#983168"/>
    </linearGradient>
    <linearGradient id="Degradado_sin_nombre_9493" data-name="Degradado sin nombre 9493" x1="156.16" y1="-1960.72" x2="724.27" y2="-1960.72" gradientTransform="translate(-1042.88 620.09) rotate(60.71) scale(.67)" gradientUnits="userSpaceOnUse">
      <stop offset="0" stop-color="#6348cd"/>
      <stop offset="0" stop-color="#6348cd"/>
      <stop offset="1" stop-color="#95326e"/>
      <stop offset="1" stop-color="#95326e"/>
    </linearGradient>
    <linearGradient id="Degradado_sin_nombre_9492" data-name="Degradado sin nombre 9492" x1="261.05" y1="-2126.91" x2="878.66" y2="-2126.91" gradientTransform="translate(-1027.96 635.88) rotate(57.34) scale(.6)" gradientUnits="userSpaceOnUse">
      <stop offset="0" stop-color="#6647c7"/>
      <stop offset="0" stop-color="#6647c7"/>
      <stop offset="1" stop-color="#923374"/>
      <stop offset="1" stop-color="#923374"/>
    </linearGradient>
    <linearGradient id="Degradado_sin_nombre_9491" data-name="Degradado sin nombre 9491" x1="415.62" y1="-2306.6" x2="1088.52" y2="-2306.6" gradientTransform="translate(-1013.05 651.67) rotate(53.22) scale(.54)" gradientUnits="userSpaceOnUse">
      <stop offset="0" stop-color="#6945c1"/>
      <stop offset="0" stop-color="#6945c1"/>
      <stop offset="1" stop-color="#8f357a"/>
      <stop offset="1" stop-color="#8f357a"/>
    </linearGradient>
    <linearGradient id="Degradado_sin_nombre_9490" data-name="Degradado sin nombre 9490" x1="642.15" y1="-2487.55" x2="1374.37" y2="-2487.55" gradientTransform="translate(-998.13 667.45) rotate(48.11) scale(.49)" gradientUnits="userSpaceOnUse">
      <stop offset="0" stop-color="#6c44bb"/>
      <stop offset="0" stop-color="#6c44bb"/>
      <stop offset="1" stop-color="#8c3680"/>
      <stop offset="1" stop-color="#8c3680"/>
    </linearGradient>
    <linearGradient id="Degradado_sin_nombre_9489" data-name="Degradado sin nombre 9489" x1="968.2" y1="-2640.38" x2="1758.9" y2="-2640.38" gradientTransform="translate(-983.21 683.24) rotate(41.73) scale(.44)" gradientUnits="userSpaceOnUse">
      <stop offset="0" stop-color="#6f43b5"/>
      <stop offset="0" stop-color="#6f43b5"/>
      <stop offset="1" stop-color="#893786"/>
      <stop offset="1" stop-color="#893786"/>
    </linearGradient>
    <linearGradient id="Degradado_sin_nombre_9488" data-name="Degradado sin nombre 9488" x1="1416.63" y1="-2704.53" x2="2255.49" y2="-2704.53" gradientTransform="translate(-968.29 699.03) rotate(33.77) scale(.39)" gradientUnits="userSpaceOnUse">
      <stop offset="0" stop-color="#7341af"/>
      <stop offset="0" stop-color="#7341af"/>
      <stop offset="1" stop-color="#85398c"/>
      <stop offset="1" stop-color="#85398c"/>
    </linearGradient>
    <linearGradient id="Degradado_sin_nombre_9487" data-name="Degradado sin nombre 9487" x1="1964.32" y1="-2584.68" x2="2846.87" y2="-2584.68" gradientTransform="translate(-953.37 714.82) rotate(24) scale(.36)" gradientUnits="userSpaceOnUse">
      <stop offset="0" stop-color="#7640a9"/>
      <stop offset="0" stop-color="#7640a9"/>
      <stop offset="1" stop-color="#823a92"/>
      <stop offset="1" stop-color="#823a92"/>
    </linearGradient>
    <linearGradient id="Degradado_sin_nombre_9486" data-name="Degradado sin nombre 9486" x1="2532.79" y1="-2187.24" x2="3551.05" y2="-2187.24" gradientTransform="translate(-938.46 730.6) rotate(12.49) scale(.33)" gradientUnits="userSpaceOnUse">
      <stop offset="0" stop-color="#793ea3"/>
      <stop offset="0" stop-color="#793ea3"/>
      <stop offset="1" stop-color="#7f3c98"/>
      <stop offset="1" stop-color="#7f3c98"/>
    </linearGradient>
    <linearGradient id="Degradado_sin_nombre_9485" data-name="Degradado sin nombre 9485" x1="2964.08" y1="-1506.53" x2="4096.94" y2="-1506.53" gradientTransform="translate(-923.54 746.39) rotate(-.14) scale(.32)" gradientUnits="userSpaceOnUse">
      <stop offset="0" stop-color="#7c3d9e"/>
      <stop offset="0" stop-color="#7c3d9e"/>
      <stop offset="1" stop-color="#7c3d9d"/>
      <stop offset="1" stop-color="#7c3d9d"/>
    </linearGradient>
    <linearGradient id="Degradado_sin_nombre_9484" data-name="Degradado sin nombre 9484" x1="3103.01" y1="-696.82" x2="4281.95" y2="-696.82" gradientTransform="translate(-908.62 762.18) rotate(-12.77) scale(.33)" gradientUnits="userSpaceOnUse">
      <stop offset="0" stop-color="#7f3c98"/>
      <stop offset="0" stop-color="#7f3c98"/>
      <stop offset="1" stop-color="#793ea3"/>
      <stop offset="1" stop-color="#793ea3"/>
    </linearGradient>
    <linearGradient id="Degradado_sin_nombre_9483" data-name="Degradado sin nombre 9483" x1="2935.48" y1="8.31" x2="4103.06" y2="8.31" gradientTransform="translate(-893.7 777.97) rotate(-24.28) scale(.36)" gradientUnits="userSpaceOnUse">
      <stop offset="0" stop-color="#823a92"/>
      <stop offset="0" stop-color="#823a92"/>
      <stop offset="1" stop-color="#7640a9"/>
      <stop offset="1" stop-color="#7640a9"/>
    </linearGradient>
    <linearGradient id="Degradado_sin_nombre_9482" data-name="Degradado sin nombre 9482" x1="2613.57" y1="478.63" x2="3708.97" y2="478.63" gradientTransform="translate(-878.79 793.75) rotate(-34.05) scale(.39)" gradientUnits="userSpaceOnUse">
      <stop offset="0" stop-color="#85398c"/>
      <stop offset="0" stop-color="#85398c"/>
      <stop offset="1" stop-color="#7341af"/>
      <stop offset="1" stop-color="#7341af"/>
    </linearGradient>
    <linearGradient id="Degradado_sin_nombre_9481" data-name="Degradado sin nombre 9481" x1="2262.77" y1="758.97" x2="3253.83" y2="758.97" gradientTransform="translate(-863.87 809.54) rotate(-42.01) scale(.44)" gradientUnits="userSpaceOnUse">
      <stop offset="0" stop-color="#893786"/>
      <stop offset="0" stop-color="#893786"/>
      <stop offset="1" stop-color="#6f43b5"/>
      <stop offset="1" stop-color="#6f43b5"/>
    </linearGradient>
    <linearGradient id="Degradado_sin_nombre_9480" data-name="Degradado sin nombre 9480" x1="1943.77" y1="893.65" x2="2826" y2="893.65" gradientTransform="translate(-848.95 825.33) rotate(-48.39) scale(.49)" gradientUnits="userSpaceOnUse">
      <stop offset="0" stop-color="#8c3680"/>
      <stop offset="0" stop-color="#8c3680"/>
      <stop offset="1" stop-color="#6c44bb"/>
      <stop offset="1" stop-color="#6c44bb"/>
    </linearGradient>
    <linearGradient id="Degradado_sin_nombre_9479" data-name="Degradado sin nombre 9479" x1="1675.63" y1="938.65" x2="2457.81" y2="938.65" gradientTransform="translate(-834.03 841.11) rotate(-53.5) scale(.54)" gradientUnits="userSpaceOnUse">
      <stop offset="0" stop-color="#8f357a"/>
      <stop offset="0" stop-color="#8f357a"/>
      <stop offset="1" stop-color="#6945c1"/>
      <stop offset="1" stop-color="#6945c1"/>
    </linearGradient>
    <linearGradient id="Degradado_sin_nombre_9478" data-name="Degradado sin nombre 9478" x1="1457.46" y1="935.57" x2="2152.55" y2="935.57" gradientTransform="translate(-819.12 856.9) rotate(-57.63) scale(.6)" gradientUnits="userSpaceOnUse">
      <stop offset="0" stop-color="#923374"/>
      <stop offset="0" stop-color="#923374"/>
      <stop offset="1" stop-color="#6647c7"/>
      <stop offset="1" stop-color="#6647c7"/>
    </linearGradient>
    <linearGradient id="Degradado_sin_nombre_9477" data-name="Degradado sin nombre 9477" x1="1281.71" y1="906.75" x2="1902.68" y2="906.75" gradientTransform="translate(-804.2 872.69) rotate(-60.99) scale(.67)" gradientUnits="userSpaceOnUse">
      <stop offset="0" stop-color="#95326e"/>
      <stop offset="0" stop-color="#95326e"/>
      <stop offset="1" stop-color="#6348cd"/>
      <stop offset="1" stop-color="#6348cd"/>
    </linearGradient>
    <linearGradient id="Degradado_sin_nombre_9476" data-name="Degradado sin nombre 9476" x1="1139.97" y1="865.28" x2="1698.26" y2="865.28" gradientTransform="translate(-789.28 888.48) rotate(-63.77) scale(.73)" gradientUnits="userSpaceOnUse">
      <stop offset="0" stop-color="#983168"/>
      <stop offset="0" stop-color="#983168"/>
      <stop offset="1" stop-color="#6049d3"/>
      <stop offset="1" stop-color="#6049d3"/>
    </linearGradient>
    <linearGradient id="Degradado_sin_nombre_9475" data-name="Degradado sin nombre 9475" x1="1024.9" y1="818.52" x2="1530.16" y2="818.52" gradientTransform="translate(-774.36 904.26) rotate(-66.09) scale(.8)" gradientUnits="userSpaceOnUse">
      <stop offset="0" stop-color="#9c2f62"/>
      <stop offset="0" stop-color="#9c2f62"/>
      <stop offset="1" stop-color="#5c4bd9"/>
      <stop offset="1" stop-color="#5c4bd9"/>
    </linearGradient>
    <linearGradient id="Degradado_sin_nombre_9474" data-name="Degradado sin nombre 9474" x1="930.64" y1="770.56" x2="1390.81" y2="770.56" gradientTransform="translate(-759.45 920.05) rotate(-68.06) scale(.86)" gradientUnits="userSpaceOnUse">
      <stop offset="0" stop-color="#9f2e5c"/>
      <stop offset="0" stop-color="#9f2e5c"/>
      <stop offset="1" stop-color="#594cdf"/>
      <stop offset="1" stop-color="#594cdf"/>
    </linearGradient>
    <linearGradient id="Degradado_sin_nombre_9473" data-name="Degradado sin nombre 9473" x1="852.65" y1="723.63" x2="1274.24" y2="723.63" gradientTransform="translate(-744.53 935.84) rotate(-69.74) scale(.93)" gradientUnits="userSpaceOnUse">
      <stop offset="0" stop-color="#a22c56"/>
      <stop offset="0" stop-color="#a22c56"/>
      <stop offset="1" stop-color="#564ee5"/>
      <stop offset="1" stop-color="#564ee5"/>
    </linearGradient>
    <linearGradient id="Degradado_sin_nombre_2" data-name="Degradado sin nombre 2" x1="787.48" y1="678.83" x2="1175.83" y2="678.83" gradientTransform="translate(-729.61 951.63) rotate(-71.2)" gradientUnits="userSpaceOnUse">
      <stop offset="0" stop-color="#a52b50"/>
      <stop offset="1" stop-color="#534feb"/>
    </linearGradient>
  </defs>
  <g id="OBJECTS">
    <g>
      <path class="cls-30" d="M244,205.22c-12.12-3.67-25.32,2.25-37.75-.18-15.54-3.04-25.41-17.76-35.9-29.63-10.49-11.87-27.61-22.34-41.32-14.41-10.47,6.05-13.25,20.32-10.83,32.17s8.75,22.51,12.41,34.04c3.38,10.65,4.43,22.03,3.06,33.12-1.98,16.06-8.94,31.31-9.77,47.47-.83,16.16,7.52,34.94,23.49,37.54,15.3,2.48,28.37-10.68,37.31-23.34,8.93-12.66,18.53-27.3,33.78-30.05,8.41-1.52,17.42.96,25.43-2.01,28.31-10.51,30.98-75.35.09-84.7Z"/>
      <path class="cls-27" d="M122.84,308.57c-.25,5.4.3,11.05,1.74,16.36,3.04,11.13,10.06,20.55,20.56,23.25,6.44,1.65,12.65.82,18.64-1.92,8.14-3.73,15.8-10.86,21.65-18.52,8.47-11.08,16.89-24.2,28.51-30.08,1.81-.91,3.71-1.65,5.7-2.18,8.13-2.21,16.86-.51,25.05-3.96,4.12-1.74,7.95-4.17,11.29-7.39,4.99-4.81,7.91-11.12,10.15-18.37,2.78-8.99,4.48-18.86,4.18-28.49-.28-8.52-2.03-16.83-5.52-23.78-3.86-7.63-9.84-13.59-17.84-16.01-12.13-3.67-25.32,2-37.76-.27-15.55-2.84-24.91-17.5-36.25-27.88-4.66-4.27-10.73-7.45-16.97-9.89-6.6-2.59-13.75-3.95-20.75-3.2-3.13.33-6.24,1.05-9.17,2.63-10.72,5.78-13.81,20-11.83,31.85.92,5.49,2.67,10.76,4.64,15.99,2.29,6.07,4.87,12.09,6.75,18.35,3.25,10.77,4.19,22.23,3.34,33.37-.65,8.54-1.85,16.67-3.17,24.86-1.32,8.19-2.54,16.56-2.93,25.28Z"/>
      <path class="cls-6" d="M121.78,309.35c-.24,5.59.18,11.42,1.47,16.92,2.74,11.49,9.48,21.17,19.64,24.77,6.4,2.27,12.71,2.36,19.13.22,8.77-2.91,17.56-9.74,24.13-17.76,9.19-11.22,17.82-25.05,29.12-31.84,1.76-1.06,3.59-1.93,5.51-2.64,7.86-2.88,16.29-2.01,24.67-5.92,4.45-2.07,8.79-4.55,12.6-7.88,5.98-5.24,8.72-12.09,11.14-20.14,2.99-9.96,5.38-20.64,5.43-31.23.01-9.32-1.58-18.51-5.3-26.3-4.06-8.44-10.65-15.15-19.45-17.83-12.14-3.68-25.32,1.75-37.77-.35-15.56-2.63-24.62-17.21-36.61-26.12-5.29-3.93-12.17-5.77-19.08-7.46-7.27-1.77-15.17-2.5-23.04-1.68-3.51.37-7.03.95-10.32,2.62-10.94,5.54-14.36,19.68-12.83,31.54.71,5.49,2.26,10.8,4.06,16.08,2.09,6.13,4.51,12.24,6.32,18.57,3.11,10.89,3.99,22.45,3.62,33.63-.3,9.07-.47,17.47-1.01,26.01-.54,8.54-1.05,17.43-1.42,26.79Z"/>
      <path class="cls-37" d="M120.71,310.13c-.21,5.79.05,11.79,1.2,17.47,2.44,11.85,8.92,21.83,18.71,26.29,6.38,2.9,12.78,3.89,19.63,2.37,9.41-2.09,19.31-8.62,26.62-17.01,9.9-11.37,18.75-25.87,29.73-33.6,1.7-1.2,3.48-2.22,5.32-3.09,7.59-3.56,15.72-3.53,24.29-7.87,4.77-2.42,9.63-4.91,13.9-8.38,6.97-5.66,9.54-13.06,12.13-21.91,3.2-10.93,6.29-22.42,6.68-33.96.31-10.11-1.12-20.2-5.08-28.82-4.25-9.26-11.46-16.72-21.06-19.65-12.15-3.69-25.32,1.49-37.78-.44-15.56-2.42-26.07-14.76-36.96-24.37-6.56-2.51-13.61-4.11-21.2-5.03s-16.59-1.05-25.33-.16c-3.89.4-7.82.86-11.47,2.61-11.14,5.34-14.92,19.37-13.83,31.23.5,5.49,1.85,10.83,3.48,16.17,1.89,6.2,4.15,12.38,5.89,18.79,2.98,11.02,3.82,22.68,3.9,33.89.07,9.61.91,18.27,1.14,27.16.23,8.89.47,18.3.1,28.3Z"/>
      <path class="cls-17" d="M119.65,310.92c-.2,5.98-.08,12.16.94,18.03,2.11,12.21,8.37,22.54,17.79,27.81,6.37,3.56,12.85,5.43,20.12,4.51,10.05-1.27,21.06-7.5,29.1-16.25,10.6-11.52,19.68-26.7,30.34-35.35,1.65-1.34,3.36-2.51,5.14-3.54,7.32-4.24,15.14-5.07,23.91-9.83,5.1-2.77,10.48-5.27,15.21-8.88,7.98-6.08,10.36-14.04,13.12-23.68,3.41-11.9,7.2-24.2,7.93-36.7.6-10.91-.68-21.88-4.85-31.33-4.45-10.07-12.26-18.29-22.66-21.47-12.15-3.69-25.32,1.24-37.79-.53-15.57-2.22-26.3-13.77-37.31-22.62-7.37-1.79-15.04-2.45-23.32-2.6s-18.02.4-27.63,1.36c-4.27.43-8.6.77-12.62,2.6-11.33,5.16-15.48,19.05-14.83,30.92.3,5.49,1.43,10.87,2.89,16.27,1.69,6.26,3.8,12.52,5.45,19.01,2.85,11.14,3.68,22.92,4.18,34.15.46,10.16,2.29,19.08,3.29,28.32,1,9.24,1.96,19.17,1.61,29.81Z"/>
      <path class="cls-23" d="M118.58,311.7c-.18,6.17-.2,12.52.67,18.58,1.81,12.57,7.82,23.29,16.87,29.33,6.36,4.25,12.92,6.98,20.62,6.66,10.69-.44,22.8-6.39,31.59-15.5,11.28-11.68,20.61-27.52,30.95-37.11,1.59-1.48,3.25-2.8,4.95-3.99,7.05-4.93,14.56-6.62,23.53-11.78,5.42-3.12,11.33-5.63,16.51-9.38,8.98-6.49,11.17-15.01,14.11-25.46,3.62-12.87,8.1-25.98,9.18-39.43.9-11.7-.23-23.56-4.63-33.85-4.65-10.88-13.07-19.86-24.27-23.28-12.16-3.7-25.32.99-37.81-.61-15.58-2.01-26.52-12.77-37.67-20.86-8.18-1.07-16.48-.79-25.44-.17s-19.44,1.84-29.92,2.88c-4.65.46-9.39.69-13.77,2.6-11.51,5-16.03,18.74-15.84,30.6.09,5.5,1.02,10.91,2.31,16.36,1.49,6.32,3.44,12.67,5.02,19.22,2.72,11.26,3.57,23.16,4.47,34.41s3.67,19.88,5.45,29.47c1.78,9.59,3.46,20.05,3.13,31.32Z"/>
      <path class="cls-32" d="M117.52,312.48c-.17,6.37-.33,12.89.4,19.14,1.51,12.93,7.25,24.07,15.94,30.85,6.35,4.95,12.99,8.52,21.12,8.8,11.34.39,24.53-5.28,34.07-14.74,11.96-11.85,21.54-28.34,31.55-38.87,1.54-1.62,3.13-3.09,4.77-4.45,6.78-5.62,13.97-8.17,23.14-13.74,5.74-3.48,12.18-5.98,17.82-9.87,10-6.9,11.99-15.98,15.1-27.23,3.83-13.84,9.01-27.76,10.43-42.17,1.19-12.5.21-25.24-4.4-36.37-4.85-11.69-13.88-21.43-25.88-25.1-12.17-3.7-25.31.74-37.82-.7-15.58-1.81-26.74-11.77-38.02-19.11-9-.35-17.91.86-27.56,2.27s-20.86,3.29-32.21,4.4c-5.03.49-10.16.61-14.92,2.59-11.67,4.86-16.59,18.42-16.84,30.29-.11,5.5.61,10.95,1.73,16.45,1.29,6.38,3.09,12.81,4.59,19.44,2.58,11.38,3.48,23.41,4.75,34.67,1.27,11.27,5.05,20.68,7.6,30.62,2.55,9.94,4.96,20.92,4.64,32.83Z"/>
      <path class="cls-5" d="M116.45,313.26c-.15,6.56-.45,13.26.13,19.69,1.21,13.29,6.67,24.89,15.02,32.37,6.33,5.68,13.07,10.07,21.61,10.95,11.98,1.22,26.26-4.18,36.56-13.99,12.63-12.02,22.47-29.15,32.16-40.63,1.48-1.76,3.02-3.38,4.58-4.9,6.51-6.32,13.38-9.73,22.76-15.69,6.05-3.85,13.04-6.33,19.13-10.37,11.01-7.3,12.8-16.96,16.09-29,4.04-14.81,9.91-29.55,11.69-44.91,1.49-13.3.65-26.92-4.18-38.89s-14.69-23-27.49-26.92c-12.18-3.71-25.31.48-37.83-.79-15.59-1.6-26.96-10.77-38.37-17.36-9.81.37-19.35,2.51-29.68,4.7s-22.28,4.74-34.5,5.92c-5.41.52-10.94.54-16.07,2.58-11.84,4.72-17.15,18.1-17.84,29.98-.32,5.5.2,10.99,1.14,16.54,1.09,6.45,2.73,12.96,4.16,19.66,2.45,11.5,3.41,23.65,5.03,34.93,1.7,11.83,6.43,21.49,9.76,31.77,3.32,10.28,6.45,21.79,6.15,34.35Z"/>
      <path class="cls-9" d="M115.39,314.04c-.14,6.75-.57,13.63-.13,20.25.91,13.65,6.08,25.72,14.1,33.89,6.3,6.42,13.14,11.63,22.11,13.09,12.63,2.06,27.98-3.08,39.04-13.23,13.3-12.2,23.41-29.96,32.77-42.39,1.43-1.9,2.9-3.67,4.39-5.35,6.24-7.01,12.79-11.3,22.38-17.65,6.37-4.21,13.89-6.68,20.43-10.87,12.03-7.7,13.62-17.93,17.08-30.77,4.25-15.78,10.82-31.33,12.94-47.64,1.78-14.09,1.1-28.6-3.96-41.4s-15.5-24.57-29.09-28.74c-12.19-3.71-25.31.23-37.84-.88-15.59-1.4-27.18-9.77-38.73-15.6-10.62,1.09-20.78,4.16-31.8,7.13s-23.71,6.19-36.8,7.44c-5.79.55-11.72.46-17.22,2.58-12,4.6-17.71,17.79-18.84,29.67-.53,5.5-.21,11.03.56,16.63.89,6.51,2.38,13.1,3.72,19.87,2.32,11.63,3.36,23.9,5.31,35.18,2.14,12.38,7.81,22.29,11.91,32.93,4.1,10.63,7.94,22.66,7.67,35.86Z"/>
      <path class="cls-36" d="M114.32,314.82c-.13,6.95-.69,13.99-.4,20.8.61,14,5.47,26.57,13.17,35.41,6.25,7.17,13.21,13.18,22.6,15.23,13.27,2.9,29.7-1.99,41.53-12.48,13.96-12.38,24.34-30.78,33.38-44.14,1.38-2.03,2.79-3.97,4.21-5.8,5.96-7.71,12.19-12.87,22-19.6,6.68-4.58,14.75-7.03,21.74-11.36,13.05-8.09,14.44-18.91,18.07-32.54,4.46-16.74,11.72-33.11,14.19-50.38,2.08-14.89,1.54-30.28-3.73-43.92s-16.3-26.14-30.7-30.55c-12.2-3.72-25.31-.02-37.85-.96-15.6-1.19-27.41-8.77-39.08-13.85-11.43,1.81-22.22,5.8-33.92,9.56s-25.13,7.64-39.09,8.97c-6.17.59-12.49.4-18.37,2.57-12.15,4.49-18.26,17.47-19.84,29.35-.73,5.5-.62,11.06-.03,16.72.69,6.57,2.02,13.25,3.29,20.09,2.19,11.75,3.32,24.14,5.59,35.44,2.6,12.94,9.19,23.09,14.06,34.08,4.87,10.98,9.44,23.53,9.18,37.37Z"/>
      <path class="cls-45" d="M113.26,315.6c-.11,7.14-.82,14.36-.67,21.35.31,14.36,4.84,27.43,12.25,36.93,6.19,7.93,13.28,14.73,23.1,17.38,13.91,3.75,31.42-.9,44.01-11.72,14.62-12.57,25.28-31.59,33.99-45.9,1.32-2.17,2.67-4.26,4.02-6.26,5.69-8.41,11.59-14.44,21.62-21.56,6.99-4.96,15.61-7.38,23.04-11.86,14.07-8.48,15.25-19.88,19.06-34.32,4.67-17.71,12.63-34.89,15.44-53.11,2.37-15.68,1.98-31.96-3.51-46.44s-17.11-27.7-32.31-32.37c-12.21-3.73-25.31-.27-37.86-1.05-15.61-.98-27.63-7.77-39.44-12.09-12.24,2.53-23.66,7.45-36.04,11.99s-26.55,9.09-41.38,10.49c-6.55.62-13.26.33-19.52,2.56-12.3,4.38-18.82,17.15-20.84,29.04-.94,5.5-1.03,11.1-.61,16.81.49,6.64,1.67,13.39,2.86,20.31,2.05,11.87,3.29,24.38,5.87,35.7,3.08,13.49,10.57,23.89,16.22,35.23,5.64,11.33,10.93,24.4,10.7,38.88Z"/>
      <path class="cls-51" d="M112.19,316.38c-.1,7.33-.94,14.73-.93,21.91,0,14.72,4.19,28.3,11.32,38.45,6.11,8.7,13.35,16.29,23.59,19.52,14.55,4.59,33.14.19,46.5-10.97,15.28-12.76,26.22-32.4,34.6-47.66,1.27-2.31,2.55-4.55,3.83-6.71,5.41-9.11,10.99-16.02,21.24-23.51,7.3-5.33,16.46-7.72,24.35-12.36,15.09-8.87,16.07-20.85,20.05-36.09,4.89-18.68,13.53-36.67,16.69-55.85,2.67-16.48,2.39-33.63-3.29-48.96-5.9-15.73-17.92-29.27-33.91-34.19-12.22-3.73-25.31-.53-37.87-1.14-15.61-.78-27.85-6.77-39.79-10.34-13.05,3.24-25.1,9.09-38.16,14.42s-27.97,10.54-43.67,12.01c-6.93.65-14.03.27-20.67,2.56-12.45,4.28-19.38,16.84-21.84,28.73-1.14,5.51-1.45,11.14-1.19,16.9.29,6.7,1.31,13.53,2.43,20.53,1.92,11.99,3.28,24.62,6.15,35.96,3.56,14.04,11.95,24.7,18.37,36.38,6.42,11.68,12.42,25.27,12.21,40.39Z"/>
      <path class="cls-11" d="M111.13,317.17c-.09,7.53-1.06,15.09-1.2,22.46-.29,15.08,3.53,29.17,10.4,39.97,6.03,9.48,13.42,17.85,24.09,21.67,15.19,5.44,34.85,1.27,48.98-10.21,15.94-12.95,27.16-33.21,35.21-49.42,1.22-2.45,2.44-4.84,3.65-7.16,5.13-9.81,10.38-17.6,20.86-25.46,7.61-5.71,17.32-8.07,25.66-12.86,16.11-9.26,16.88-21.83,21.04-37.86,5.1-19.65,14.44-38.45,17.94-58.58,2.96-17.27,2.84-35.31-3.06-51.48-6.1-16.54-18.73-30.84-35.52-36-12.23-3.74-25.3-.78-37.89-1.22-15.62-.57-28.07-5.77-40.14-8.59-13.86,3.96-26.54,10.73-40.28,16.85s-29.4,11.99-45.97,13.53c-7.31.68-14.8.22-21.82,2.55-12.6,4.19-19.93,16.52-22.85,28.42-1.35,5.51-1.86,11.18-1.78,16.99.09,6.76.96,13.68,2,20.74,1.79,12.11,3.27,24.85,6.43,36.22,4.06,14.59,13.33,25.5,20.52,37.54,7.19,12.03,13.91,26.15,13.73,41.9Z"/>
      <path class="cls-20" d="M110.06,317.95c-.08,7.72-1.18,15.46-1.47,23.02-.59,15.44,2.86,30.04,9.48,41.49,5.92,10.25,13.48,19.41,24.58,23.81,15.83,6.28,36.56,2.36,51.47-9.46,16.59-13.15,28.11-34.02,35.82-51.17,1.16-2.59,2.32-5.13,3.46-7.61,4.85-10.51,9.78-19.18,20.48-27.42,7.91-6.09,18.18-8.41,26.96-13.35,17.13-9.64,17.7-22.8,22.03-39.63,5.31-20.62,15.34-40.23,19.2-61.32,3.26-18.07,3.28-36.99-2.84-53.99-6.31-17.35-19.54-32.41-37.13-37.82-12.24-3.74-25.3-1.03-37.9-1.31-15.63-.37-28.29-4.77-40.5-6.83-14.67,4.68-27.98,12.38-42.4,19.28-14.53,6.96-30.82,13.44-48.26,15.05-7.69.71-15.57.17-22.97,2.54-12.75,4.09-20.49,16.2-23.85,28.1-1.55,5.51-2.27,11.22-2.36,17.08-.11,6.82.6,13.82,1.56,20.96,1.66,12.24,3.27,25.08,6.72,36.48,4.57,15.13,14.71,26.3,22.68,38.69,7.96,12.38,15.41,27.02,15.24,43.42Z"/>
      <path class="cls-33" d="M109,318.73c-.06,7.91-1.3,15.83-1.74,23.57-.89,15.79,2.18,30.91,8.55,43.01,5.81,11.03,13.55,20.96,25.08,25.96,16.46,7.13,38.28,3.44,53.95-8.7,17.24-13.35,29.05-34.83,36.43-52.93,1.11-2.73,2.2-5.43,3.28-8.07,4.56-11.21,9.17-20.76,20.1-29.37,8.21-6.47,19.04-8.75,28.27-13.85,18.15-10.03,18.51-23.77,23.02-41.41,5.52-21.59,16.25-42.01,20.45-64.05,3.55-18.87,3.72-38.67-2.62-56.51-6.51-18.16-20.34-33.98-38.73-39.64-12.25-3.75-25.3-1.29-37.91-1.4-15.63-.16-28.52-3.77-40.85-5.08-15.49,5.4-29.42,14.02-44.52,21.71s-32.24,14.89-50.55,16.57c-8.07.74-16.34.12-24.12,2.53-12.9,4.01-21.05,15.89-24.85,27.79-1.76,5.51-2.68,11.25-2.94,17.17-.31,6.89.24,13.97,1.13,21.18,1.53,12.36,3.28,25.31,7,36.73,5.1,15.66,16.09,27.11,24.83,39.84,8.74,12.73,16.9,27.89,16.76,44.93Z"/>
      <path class="cls-47" d="M107.93,319.51c-.05,8.11-1.42,16.19-2,24.13-1.18,16.15,1.48,31.77,7.63,44.53,5.68,11.8,13.62,22.52,25.57,28.1,17.1,7.98,39.99,4.51,56.44-7.95,17.9-13.55,30-35.64,37.03-54.69,1.06-2.87,2.08-5.72,3.09-8.52,4.28-11.91,8.56-22.34,19.72-31.33,8.52-6.86,19.9-9.09,29.57-14.35,19.18-10.41,19.33-24.75,24.01-43.18,5.73-22.56,17.15-43.79,21.7-66.79,3.84-19.66,4.16-40.36-2.39-59.03-6.71-18.97-21.15-35.55-40.34-41.46-12.26-3.76-25.3-1.54-37.92-1.48-15.64.05-28.74-2.77-41.2-3.33-16.3,6.12-30.86,15.66-46.64,24.15-15.86,8.53-33.67,16.33-52.85,18.09-8.45.78-17.11.07-25.27,2.53-13.05,3.92-21.6,15.57-25.85,27.48-1.97,5.51-3.09,11.29-3.53,17.27-.51,6.95-.11,14.11.7,21.39,1.39,12.48,3.29,25.53,7.28,36.99,5.63,16.19,17.47,27.91,26.98,40.99,9.51,13.08,18.39,28.76,18.27,46.44Z"/>
      <path class="cls-7" d="M106.87,320.29c-.04,8.3-1.54,16.56-2.27,24.68-1.48,16.51.78,32.63,6.71,46.05,5.55,12.58,13.68,24.08,26.07,30.24,17.74,8.83,41.69,5.59,58.92-7.19,18.55-13.75,30.94-36.45,37.64-56.45,1.01-3.01,1.97-6.01,2.9-8.97,4-12.6,7.94-23.93,19.33-33.28,8.82-7.24,20.75-9.44,30.88-14.84,20.2-10.79,20.15-25.72,25-44.95,5.94-23.53,18.06-45.57,22.95-69.52,4.14-20.46,4.6-42.04-2.17-61.55-6.92-19.78-21.96-37.12-41.95-43.27-12.27-3.76-25.3-1.79-37.93-1.57-15.64.25-28.96-1.77-41.56-1.57-17.11,6.84-32.3,17.3-48.76,26.58s-35.09,17.78-55.14,19.61c-8.83.81-17.88.03-26.42,2.52-13.19,3.84-22.16,15.25-26.85,27.17-2.17,5.52-3.5,11.33-4.11,17.36-.71,7.01-.47,14.25.27,21.61,1.26,12.6,3.31,25.75,7.56,37.25,6.18,16.71,18.85,28.71,29.14,42.15,10.28,13.43,19.88,29.63,19.79,47.95Z"/>
      <path class="cls-34" d="M105.81,321.07c-.05,8.49-1.66,16.93-2.54,25.24-1.78,16.87.07,33.49,5.78,47.57,5.41,13.35,13.75,25.64,26.57,32.39,18.37,9.68,43.4,6.66,61.41-6.44,19.2-13.96,31.89-37.26,38.25-58.21.95-3.14,1.85-6.3,2.72-9.42,3.71-13.3,7.33-25.51,18.95-35.24,9.11-7.62,21.61-9.78,32.18-15.34,21.22-11.17,20.96-26.69,25.99-46.72,6.15-24.5,18.96-47.35,24.2-72.26,4.43-21.25,5.04-43.72-1.95-64.06-7.12-20.59-22.77-38.69-43.56-45.09-12.28-3.77-25.3-2.04-37.94-1.66-15.65.46-29.5-2.82-41.91.18-18.91,4.57-33.75,18.94-50.88,29.01-17.19,10.1-36.51,19.23-57.43,21.14-9.21.84-18.64,0-27.57,2.51-13.34,3.77-22.72,14.94-27.85,26.85-2.38,5.52-3.91,11.37-4.69,17.45-.91,7.08-.82,14.4-.17,21.83,1.13,12.73,3.33,25.97,7.84,37.51,6.74,17.23,20.23,29.52,31.29,43.3,11.06,13.78,21.33,30.5,21.3,49.46Z"/>
      <path class="cls-53" d="M104.74,321.85c-.03,8.69-1.77,17.3-2.8,25.79-2.04,17.23-.64,34.35,4.86,49.09s13.81,27.2,27.06,34.53c19,10.52,45.11,7.73,63.89-5.68,19.85-14.17,32.84-38.07,38.86-59.96.9-3.28,1.73-6.6,2.53-9.88,3.43-14,6.72-27.1,18.57-37.19,9.41-8.01,22.47-10.12,33.49-15.84,22.25-11.55,21.78-27.67,26.98-48.5,6.36-25.47,19.87-49.13,25.45-74.99,4.73-22.05,5.49-45.4-1.72-66.58-7.32-21.4-23.58-40.25-45.16-46.91-12.29-3.77-25.29-2.3-37.95-1.74-15.66.66-29.77-1.58-42.26,1.93-19.71,5.54-35.19,20.59-52.99,31.44s-37.93,20.68-59.72,22.66c-9.59.87-19.41-.04-28.72,2.51-13.49,3.69-23.27,14.62-28.85,26.54-2.58,5.52-4.33,11.41-5.28,17.54-1.11,7.14-1.18,14.54-.6,22.05,1,12.85,3.35,26.18,8.12,37.77,7.3,17.74,21.61,30.32,33.44,44.45,11.83,14.13,22.82,31.37,22.81,50.97Z"/>
      <path class="cls-25" d="M103.68,322.63c-.02,8.88-1.89,17.66-3.07,26.35-2.34,17.59-1.36,35.2,3.93,50.61,5.11,14.89,13.88,28.76,27.56,36.68,19.64,11.37,46.81,8.8,66.38-4.93,20.5-14.38,33.79-38.88,39.47-61.72.85-3.42,1.61-6.89,2.35-10.33,3.14-14.7,6.1-28.69,18.19-39.15,9.71-8.4,23.33-10.46,34.8-16.34,23.27-11.93,22.59-28.64,27.97-50.27,6.57-26.44,20.77-50.91,26.7-77.73,5.02-22.84,5.93-47.08-1.5-69.1-7.53-22.21-24.38-41.82-46.77-48.73-12.3-3.78-25.29-2.55-37.96-1.83-15.66.87-30.02-.34-42.62,3.69-20.49,6.55-36.63,22.23-55.11,33.87-18.52,11.67-39.36,22.13-62.02,24.18-9.97.9-20.17-.07-29.87,2.5-13.64,3.62-23.83,14.3-29.85,26.23-2.79,5.52-4.74,11.45-5.86,17.63-1.31,7.2-1.53,14.69-1.03,22.26.86,12.97,3.38,26.39,8.4,38.03,7.87,18.24,22.99,31.12,35.6,45.6,12.6,14.48,24.31,32.25,24.33,52.48Z"/>
      <path class="cls-40" d="M102.61,323.42c0,9.07-2.01,18.03-3.34,26.9-2.64,17.95-2.08,36.05,3.01,52.14s13.94,30.31,28.05,38.82c20.27,12.22,48.52,9.86,68.86-4.17,21.14-14.59,34.74-39.69,40.08-63.48.8-3.56,1.49-7.18,2.16-10.78,2.85-15.4,5.49-30.27,17.81-41.1,10-8.79,24.19-10.8,36.1-16.83,24.3-12.3,23.41-29.62,28.96-52.04,6.78-27.41,21.68-52.7,27.96-80.46,5.32-23.64,6.37-48.76-1.27-71.62-7.73-23.02-25.19-43.39-48.38-50.54-12.31-3.78-25.29-2.8-37.98-1.92-15.67,1.08-30.25.9-42.97,5.44-21.24,7.58-38.1,23.83-57.23,36.3-19.21,12.42-40.78,23.58-64.31,25.7-10.35.93-20.94-.1-31.02,2.49-13.78,3.55-24.39,13.99-30.86,25.92-2.99,5.52-5.15,11.48-6.44,17.72-1.51,7.26-1.89,14.83-1.46,22.48.73,13.09,3.41,26.59,8.68,38.29,8.45,18.73,24.37,31.93,37.75,46.76,13.38,14.83,25.81,33.12,25.84,54Z"/>
      <path class="cls-24" d="M101.55,324.2c0,9.27-2.13,18.4-3.61,27.46-2.94,18.31-2.8,36.89,2.09,53.66s13.99,31.9,28.55,40.97c20.88,13.11,50.22,10.93,71.35-3.42s35.74-40.49,40.69-65.24c.75-3.7,1.37-7.47,1.97-11.23,2.57-16.09,4.87-31.86,17.43-43.06,10.3-9.17,25.04-11.14,37.41-17.33,25.32-12.68,24.22-30.59,29.95-53.81,7-28.38,22.58-54.48,29.21-83.2,5.61-24.44,6.81-50.44-1.05-74.14-7.94-23.83-26-44.96-49.98-52.36-12.32-3.79-25.29-3.05-37.99-2-15.68,1.28-30.45,2.13-43.33,7.19-21.96,8.64-39.54,25.48-59.35,38.73-19.88,13.21-42.2,25.03-66.6,27.22-10.73.96-21.7-.13-32.17,2.49-13.93,3.48-24.95,13.67-31.86,25.6-3.2,5.52-5.56,11.52-7.03,17.81-1.71,7.33-2.24,14.98-1.9,22.7.6,13.21,3.44,26.79,8.97,38.54,9.04,19.22,25.75,32.73,39.9,47.91,14.15,15.18,27.3,33.99,27.36,55.51Z"/>
      <path class="cls-42" d="M100.48,324.98c.02,9.46-2.25,18.76-3.87,28.01-3.24,18.66-3.53,37.73,1.16,55.18s14.05,33.45,29.04,43.11c21.51,13.95,51.93,11.99,73.83-2.66,22.44-15.01,36.68-41.31,41.3-67,.7-3.84,1.25-7.76,1.79-11.68,2.25-16.79,4.25-33.45,17.05-45.01,10.59-9.56,25.9-11.48,38.71-17.83,26.35-13.05,25.04-31.56,30.94-55.58,7.21-29.35,23.49-56.26,30.46-85.94,5.91-25.23,7.25-52.12-.83-76.65-8.14-24.64-26.81-46.53-51.59-54.18-12.33-3.8-25.29-3.31-38-2.09-15.68,1.49-30.63,3.36-43.68,8.95-22.66,9.7-40.98,27.13-61.47,41.16-20.54,14-43.62,26.48-68.89,28.74-11.11,1-22.47-.15-33.32,2.48-14.08,3.41-25.5,13.36-32.86,25.29-3.41,5.53-5.97,11.56-7.61,17.9-1.91,7.39-2.6,15.12-2.33,22.91.47,13.34,3.47,26.99,9.25,38.8,9.64,19.7,27.13,33.53,42.06,49.06,14.92,15.53,28.79,34.86,28.87,57.02Z"/>
      <path class="cls-19" d="M99.42,325.76c.03,9.65-2.37,19.13-4.14,28.56-3.54,19.02-4.26,38.56.24,56.7s14.12,35.01,29.54,45.26c22.15,14.79,53.63,13.05,76.32-1.91s37.62-42.12,41.91-68.75c.65-3.98,1.13-8.05,1.6-12.14,1.97-17.49,3.63-35.04,16.67-46.96,10.88-9.95,26.77-11.79,40.02-18.32,27.4-13.38,25.86-32.54,31.93-57.36,7.42-30.32,24.39-58.04,31.71-88.67,6.2-26.03,7.7-53.8-.6-79.17-8.34-25.45-27.61-48.1-53.2-55.99-12.33-3.8-25.29-3.56-38.01-2.18-15.69,1.69-30.79,4.58-44.03,10.7-23.33,10.78-42.43,28.78-63.59,43.6-21.21,14.8-45.05,27.93-71.19,30.26-11.49,1.03-23.23-.17-34.47,2.47-14.23,3.34-26.06,13.04-33.86,24.98-3.61,5.53-6.38,11.6-8.19,17.99-2.11,7.45-2.96,15.26-2.76,23.13.33,13.46,3.5,27.18,9.53,39.06,10.24,20.18,28.51,34.34,44.21,50.21,15.7,15.88,30.28,35.73,30.39,58.53Z"/>
      <path class="cls-3" d="M98.35,326.54c.05,9.85-2.49,19.5-4.41,29.12-3.84,19.38-4.99,39.4-.68,58.22,4.28,18.7,14.19,36.56,30.03,47.4,22.79,15.63,55.33,14.11,78.8-1.15s38.56-42.94,42.51-70.51c.6-4.12,1.01-8.34,1.42-12.59,1.69-18.18,3.01-36.63,16.29-48.92,11.17-10.34,27.63-12.14,41.32-18.82,28.41-13.77,26.67-33.51,32.92-59.13,7.63-31.29,25.3-59.82,32.96-91.41,6.5-26.82,8.14-55.48-.38-81.69-8.55-26.26-28.42-49.67-54.81-57.81-12.34-3.81-25.28-3.81-38.02-2.26-15.69,1.9-30.93,5.8-44.39,12.45-23.98,11.86-43.87,30.42-65.71,46.03-21.87,15.59-46.47,29.38-73.48,31.78-11.87,1.06-23.99-.19-35.62,2.46-14.38,3.28-26.62,12.72-34.86,24.67-3.82,5.53-6.8,11.64-8.78,18.08-2.31,7.52-3.31,15.41-3.19,23.35.2,13.58,3.53,27.37,9.81,39.32,10.85,20.65,29.89,35.14,46.36,51.37,16.47,16.23,31.77,36.6,31.9,60.04Z"/>
      <path class="cls-39" d="M97.29,327.32c.06,10.04-2.62,19.87-4.68,29.67-4.14,19.74-5.73,40.23-1.61,59.74s14.25,38.11,30.53,49.54c23.42,16.47,57.02,15.14,81.29-.4,24.37-15.68,39.51-43.75,43.12-72.27.54-4.26.9-8.64,1.23-13.04,1.41-18.87,2.37-38.23,15.91-50.87,11.44-10.75,28.48-12.49,42.63-19.32,29.43-14.16,27.49-34.48,33.91-60.9,7.84-32.26,26.21-61.6,34.21-94.14,6.79-27.62,8.58-57.16-.16-84.21-8.75-27.07-29.23-51.24-56.41-59.63-12.35-3.81-25.28-4.06-38.03-2.35-15.7,2.1-31.06,7.01-44.74,14.21-24.61,12.95-45.31,32.07-67.83,48.46-22.54,16.38-47.89,30.82-75.77,33.3-12.25,1.09-24.76-.2-36.77,2.46-14.53,3.22-27.17,12.41-35.86,24.35-4.02,5.53-7.21,11.68-9.36,18.18-2.51,7.58-3.67,15.55-3.63,23.57.07,13.7,3.57,27.56,10.09,39.58,11.46,21.11,31.27,35.94,48.52,52.52,17.24,16.58,33.27,37.47,33.42,61.55Z"/>
      <path class="cls-21" d="M378.15,151.92c7.09-28.42,9.02-58.84.07-86.72-8.96-27.88-30.04-52.8-58.02-61.45-27.58-8.52-57.92-.51-83.14,13.52-25.22,14.03-46.75,33.72-69.95,50.89-23.2,17.17-49.32,32.27-78.07,34.83-12.63,1.12-25.52-.21-37.92,2.45-21.48,4.61-39.46,21.6-46.81,42.31-7.34,20.71-4.42,44.45,6.31,63.62,12.08,21.57,32.65,36.74,50.67,53.67,18.02,16.93,34.76,38.35,34.93,63.07.07,10.23-2.74,20.23-4.94,30.23-4.43,20.1-6.46,41.05-2.53,61.26,3.93,20.2,14.32,39.67,31.02,51.69,24.06,17.31,58.74,16.23,83.77.36,25.03-15.87,40.45-44.57,43.73-74.03,2.59-23.22-.4-50.26,16.57-66.32,11.75-11.13,29.34-12.84,43.94-19.81,30.45-14.55,28.3-35.46,34.9-62.67,8.05-33.23,27.11-63.38,35.47-96.88Z"/>
      <path class="cls-8" d="M93.67,329.4c.49,10.68-.78,20.76-2.14,30.49-2.75,19.56-4.18,39.55.62,59,4.8,19.45,15.84,38.31,32.76,50.42,23.51,16.89,57.11,16.05,81.66,1.1,24.7-15.04,40.38-42.61,44.27-71.34,3.08-22.76.8-49.36,17.13-65.68,11.5-11.49,27.99-14.26,42-21.64,28.93-15.25,27.19-35.89,33.95-62.78,8.09-32.2,26.44-61.48,34.89-93.89,7.25-27.82,9.75-57.58,1.46-85.04-8.28-27.46-28.47-52.06-55.53-61.19s-56.97-2.22-82.27,11.18c-25.29,13.39-47.04,32.79-70.08,50.05-22.88,17.1-48.5,32.44-76.96,34.97-12.72,1.13-25.63-.48-38.12,1.96-21.82,4.18-39.45,21.17-47.34,41.67s-6.51,43.98,2.98,63.1c10.65,21.45,29.87,36.77,46.84,54.02,16.97,17.25,32.74,39.01,33.87,63.61Z"/>
      <path class="cls-50" d="M91.12,330.7c.92,11.15,1.19,21.23.65,30.75-1.06,18.95-1.9,38.04,3.76,56.74,5.67,18.7,17.36,36.96,34.49,49.16,22.96,16.47,55.49,15.87,79.55,1.84s40.32-40.66,44.81-68.66c3.58-22.29,2-48.49,17.7-65.04,11.25-11.86,26.63-15.68,40.06-23.47,27.41-15.92,26.07-36.31,33-62.88,8.13-31.18,25.78-59.59,34.32-90.89,7.43-27.22,10.47-56.32,2.86-83.35-7.61-27.03-26.9-51.32-53.05-60.94s-56.03-3.92-81.39,8.83c-25.36,12.75-47.34,31.85-70.21,49.2-22.57,17.03-47.68,32.61-75.86,35.12-12.8,1.15-25.74-.71-38.31,1.46-22.14,3.83-39.44,20.73-47.86,41.03-8.57,20.65-8.6,43.5-.35,62.58,9.23,21.32,27.09,36.8,43.01,54.37,15.92,17.57,30.79,39.68,32.81,64.15Z"/>
      <path class="cls-52" d="M88.57,332c1.37,11.62,3.15,21.65,3.45,31.01.59,18.26.38,36.54,6.91,54.49,6.53,17.95,18.91,35.56,36.23,47.89,22.45,15.99,53.88,15.69,77.43,2.58,24.04-13.38,40.26-38.71,45.35-65.98,4.07-21.83,3.19-47.62,18.26-64.39,11-12.24,25.26-17.07,38.12-25.3,25.86-16.55,24.95-36.74,32.05-62.98,8.16-30.15,25.13-57.69,33.75-87.9,7.6-26.63,11.19-55.06,4.25-81.67-6.94-26.61-25.33-50.59-50.56-60.69-25.43-10.18-55.09-5.63-80.52,6.49-25.43,12.11-47.63,30.92-70.34,48.36-22.25,16.96-46.86,32.77-74.75,35.27-12.88,1.16-25.85-.96-38.51.97-22.47,3.43-39.44,20.29-48.39,40.39s-10.7,43-3.67,62.07c7.8,21.16,24.31,36.83,39.18,54.72,14.87,17.89,28.89,40.38,31.75,64.69Z"/>
      <path class="cls-4" d="M86.01,333.3c1.83,12.1,5.09,22.02,6.25,31.28,2.19,17.49,2.66,35.03,10.06,52.23,7.4,17.19,20.44,34.19,37.96,46.62,21.91,15.55,52.28,15.51,75.32,3.32,23.73-12.56,40.21-36.76,45.88-63.29,4.57-21.37,4.38-46.77,18.83-63.75,10.75-12.63,23.87-18.45,36.19-27.14,24.31-17.14,23.83-37.16,31.1-63.08,8.17-29.13,24.48-55.79,33.18-84.91,7.78-26.04,11.91-53.8,5.65-79.99-6.27-26.18-23.77-49.87-48.07-60.44-24.72-10.75-54.14-7.33-79.65,4.14-25.51,11.47-47.89,30.04-70.47,47.51s-46.04,32.94-73.65,35.42c-12.96,1.17-25.96-1.22-38.7.47-22.81,3.03-39.45,19.86-48.92,39.75s-12.8,42.48-7,61.55c6.38,20.99,21.52,36.86,35.35,55.07,13.83,18.2,27.04,41.08,30.69,65.24Z"/>
      <path class="cls-2" d="M83.46,334.6c2.3,12.58,7,22.33,9.05,31.54,3.7,16.67,4.94,33.53,13.21,49.97,8.27,16.44,21.97,32.82,39.7,45.36,21.37,15.11,50.68,15.34,73.21,4.06s40.16-34.81,46.42-60.61c5.08-20.91,5.56-45.93,19.4-63.11,10.49-13.03,22.47-19.81,34.25-28.97,22.75-17.68,22.7-37.58,30.16-63.18,8.18-28.11,23.85-53.9,32.61-81.92,7.96-25.45,12.64-52.54,7.04-78.3-5.59-25.76-22.21-49.17-45.58-60.19s-53.2-9.04-78.77,1.8c-25.58,10.83-48.17,29.12-70.61,46.67s-45.22,33.11-72.54,35.57c-13.05,1.18-26.08-1.47-38.89-.02-23.14,2.62-39.46,19.42-49.45,39.12-10.44,20.58-14.89,41.94-10.33,61.03,4.96,20.8,18.74,36.89,31.52,55.42,12.78,18.52,25.24,41.78,29.63,65.78Z"/>
      <path class="cls-12" d="M80.91,335.9c2.79,13.07,8.88,22.62,11.84,31.8,5.11,15.8,7.22,32.02,16.35,47.71,9.13,15.69,23.5,31.45,41.43,44.09,20.83,14.68,49.09,15.17,71.09,4.8,23.12-10.9,40.12-32.87,46.96-57.93,5.59-20.46,6.73-45.1,19.96-62.47,10.24-13.43,21.06-21.15,32.31-30.8,21.19-18.17,21.57-38,29.21-63.29,8.18-27.08,23.22-52,32.04-78.93,8.14-24.87,13.36-51.28,8.44-76.62-4.92-25.33-20.66-48.47-43.09-59.93s-52.25-10.74-77.9-.55c-25.65,10.19-48.46,28.19-70.74,45.83-21.25,16.82-44.4,33.27-71.44,35.72-13.13,1.19-26.19-1.73-39.09-.52-23.48,2.21-39.47,18.98-49.98,38.48-11.08,20.56-16.97,41.38-13.66,60.51,3.56,20.58,15.96,36.92,27.69,55.77,11.73,18.84,23.48,42.48,28.57,66.32Z"/>
      <path class="cls-35" d="M78.35,337.2c3.3,13.55,10.7,22.88,14.64,32.06,6.4,14.91,9.5,30.52,19.5,45.46,10,14.94,25.03,30.09,43.17,42.82,20.29,14.25,47.51,15,68.98,5.54,22.83-10.07,40.08-30.93,47.5-55.24,6.1-20.01,7.89-44.29,20.53-61.82,9.97-13.84,19.64-22.46,30.37-32.63,19.64-18.6,20.43-38.42,28.26-63.39,8.17-26.06,22.6-50.11,31.46-75.94,8.34-24.28,14.08-50.02,9.83-74.93-4.25-24.91-19.1-47.79-40.61-59.68-22.63-12.52-51.31-12.45-77.03-2.89-25.72,9.55-48.74,27.27-70.87,44.98-20.92,16.75-43.58,33.44-70.34,35.86-13.21,1.21-26.31-1.99-39.28-1.01-23.82,1.8-39.49,18.54-50.51,37.84-11.72,20.53-19.04,40.8-16.99,59.99,2.17,20.35,13.18,36.95,23.86,56.11,10.68,19.16,21.76,43.18,27.52,66.86Z"/>
      <path class="cls-14" d="M75.8,338.5c3.82,14.04,10.92,24.16,17.44,32.33,4.98,15.16,11.78,29.02,22.65,43.2,10.87,14.18,26.56,28.72,44.9,41.56,19.74,13.82,45.94,14.85,66.87,6.28,22.55-9.23,40.05-28.99,48.04-52.56,6.62-19.56,9.04-43.48,21.09-61.18,9.71-14.26,18.22-23.75,28.43-34.46,18.1-18.98,19.29-38.84,27.31-63.49s21.99-48.21,30.89-72.94c8.53-23.7,14.8-48.76,11.23-73.25-3.57-24.49-17.54-47.12-38.12-59.43-21.94-13.13-50.37-14.15-76.16-5.24-25.79,8.91-49.03,26.34-71,44.14-20.6,16.69-42.76,33.61-69.23,36.01-13.29,1.22-26.42-2.25-39.48-1.51-24.16,1.38-39.52,18.1-51.04,37.2-12.37,20.5-21.09,40.21-20.32,59.48.81,20.1,10.4,36.98,20.03,56.46,9.64,19.48,20.06,43.88,26.46,67.4Z"/>
      <path class="cls-13" d="M73.25,339.8c4.35,14.52,12.62,24.65,20.24,32.59,6.16,14.54,14.06,27.51,25.8,40.94,11.73,13.43,28.09,27.35,46.64,40.29,19.2,13.39,44.38,14.7,64.75,7.02,22.28-8.4,40.03-27.04,48.57-49.88,7.15-19.11,10.19-42.68,21.66-60.54,9.43-14.68,16.8-25.01,26.5-36.29,16.59-19.3,18.15-39.26,26.36-63.59,8.11-24.03,21.39-46.32,30.32-69.95s15.53-47.5,12.62-71.56c-2.9-24.06-15.99-46.46-35.63-59.18-21.25-13.76-49.42-15.86-75.28-7.58-25.86,8.27-49.32,25.42-71.13,43.3-20.28,16.62-41.94,33.77-68.13,36.16-13.38,1.23-26.54-2.52-39.67-2-24.5.96-39.55,17.65-51.57,36.56-13.02,20.47-23.13,39.6-23.65,58.96-.53,19.84,7.61,37.01,16.2,56.81,8.59,19.8,18.4,44.57,25.4,67.95Z"/>
      <path class="cls-48" d="M70.7,341.1c4.9,15,14.33,25.14,23.04,32.85,7.33,13.93,16.34,26.01,28.94,38.68,12.6,12.68,29.62,25.99,48.37,39.03s42.83,14.55,62.64,7.76c22.02-7.55,40.02-25.1,49.11-47.19,7.68-18.66,11.33-41.9,22.22-59.9,9.15-15.12,15.4-26.24,24.56-38.12,15.1-19.57,16.99-39.68,25.41-63.7,8.07-23.01,20.81-44.42,29.75-66.96s16.25-46.24,14.02-69.88c-2.23-23.64-14.43-45.82-33.14-58.93-20.56-14.4-48.48-17.56-74.41-9.93-25.93,7.63-49.61,24.49-71.26,42.45-19.96,16.56-41.13,33.94-67.02,36.31-13.46,1.24-26.65-2.78-39.86-2.49-24.84.54-39.58,17.21-52.1,35.92-13.67,20.44-25.14,38.99-26.98,58.44-1.85,19.57,4.83,37.04,12.37,57.16,7.54,20.12,16.76,45.26,24.34,68.49Z"/>
      <path class="cls-18" d="M68.14,342.39c5.46,15.48,17.49,24.04,25.83,33.11,10.7,11.62,18.62,24.5,32.09,36.43,13.47,11.93,31.14,24.63,50.11,37.76,18.1,12.54,41.28,14.42,60.53,8.49,21.77-6.7,40.02-23.16,49.65-44.51,8.21-18.21,12.45-41.12,22.79-59.25,8.87-15.55,14-27.45,22.62-39.95,13.65-19.79,15.83-40.09,24.47-63.8,8.01-22,20.23-42.53,29.18-63.97,9.17-21.97,16.97-44.98,15.41-68.19-1.56-23.21-12.86-45.19-30.66-58.68-19.87-15.05-47.54-19.27-73.54-12.27-26,6.99-49.9,23.56-71.39,41.61-19.64,16.49-40.31,34.11-65.92,36.46-13.54,1.25-26.77-3.05-40.06-2.99-25.18.12-39.62,16.76-52.63,35.29-14.33,20.41-27.13,38.37-30.31,57.92s2.05,37.07,8.54,57.51c6.49,20.44,15.14,45.94,23.28,69.03Z"/>
      <path class="cls-44" d="M65.59,343.69c6.03,15.95,19.09,24.43,28.63,33.38,11.65,10.92,20.91,23,35.24,34.17,14.33,11.17,32.67,23.26,51.84,36.49,17.55,12.11,39.75,14.3,58.42,9.23,21.54-5.85,40.02-21.22,50.19-41.83,8.76-17.76,13.57-40.34,23.35-58.61,8.57-16,12.63-28.63,20.68-41.78,12.24-19.97,14.66-40.51,23.52-63.9,7.94-20.99,19.67-40.63,28.61-60.98,9.39-21.4,17.69-43.72,16.81-66.51-.88-22.79-11.29-44.58-28.17-58.42-19.17-15.72-46.59-20.97-72.66-14.62-26.07,6.35-50.19,22.63-71.52,40.76-19.32,16.42-39.49,34.27-64.82,36.6-13.62,1.27-26.88-3.32-40.25-3.48-25.53-.31-39.66,16.31-53.16,34.65-14.99,20.37-29.09,37.75-33.64,57.4s-.73,37.1,4.71,57.86c5.44,20.76,13.53,46.61,22.22,69.57Z"/>
      <path class="cls-49" d="M63.04,344.99c6.62,16.41,20.67,24.86,31.43,33.64,12.59,10.26,23.19,21.49,38.39,31.91,15.2,10.42,34.19,21.9,53.58,35.23,17,11.69,38.23,14.19,56.3,9.97,21.31-4.98,40.04-19.28,50.73-39.14,9.31-17.3,14.67-39.57,23.92-57.97,8.27-16.44,11.28-29.79,18.75-43.61,10.87-20.12,13.49-40.93,22.57-64,7.86-19.98,19.12-38.72,28.04-57.99,9.63-20.82,18.41-42.46,18.2-64.82-.21-22.36-9.71-43.98-25.68-58.17-18.46-16.4-45.65-22.67-71.79-16.97-26.14,5.71-50.48,21.7-71.66,39.92-19,16.35-38.67,34.44-63.71,36.75-13.7,1.28-27-3.59-40.45-3.98-25.87-.75-39.71,15.86-53.69,34.01-15.66,20.33-31.03,37.15-36.97,56.89-5.65,18.77-3.51,37.13.88,58.21,4.4,21.08,11.95,47.27,21.16,70.12Z"/>
      <path class="cls-41" d="M60.49,346.29c7.22,16.86,22.24,25.34,34.23,33.9,13.53,9.66,25.47,19.99,41.53,29.65,16.07,9.67,35.72,20.54,55.31,33.96,16.45,11.27,36.71,14.1,54.19,10.71,21.09-4.09,40.06-17.33,51.26-36.46,9.87-16.85,15.77-38.81,24.48-57.32,7.95-16.9,9.96-30.94,16.81-45.44,9.55-20.23,12.3-41.35,21.62-64.11,7.77-18.97,18.59-36.82,27.46-55,9.88-20.24,19.14-41.2,19.6-63.14.46-21.94-8.13-43.4-23.19-57.92-17.74-17.1-44.7-24.38-70.92-19.31-26.21,5.07-50.77,20.77-71.79,39.08-18.68,16.28-37.85,34.61-62.61,36.9-13.79,1.29-27.11-3.86-40.64-4.47-26.21-1.18-39.76,15.4-54.22,33.37-16.33,20.29-32.95,36.55-40.3,56.37-6.87,18.52-6.3,37.16-2.95,58.56,3.35,21.4,10.37,47.93,20.1,70.66Z"/>
      <path class="cls-43" d="M57.93,347.59c7.83,17.31,23.8,25.86,37.03,34.16,14.48,9.09,27.75,18.48,44.68,27.4,16.93,8.92,37.24,19.19,57.05,32.69,15.9,10.85,35.21,14.03,52.08,11.45,20.88-3.19,40.09-15.38,51.8-33.78,10.43-16.39,16.86-38.05,25.05-56.68,7.63-17.35,8.68-32.07,14.87-47.27,8.28-20.33,11.1-41.77,20.67-64.21,7.67-17.97,18.07-34.91,26.89-52,10.14-19.67,19.86-39.94,20.99-61.45,1.13-21.51-6.53-42.82-20.71-57.67-17.01-17.81-43.76-26.08-70.04-21.66-26.28,4.43-51.07,19.83-71.92,38.23-18.37,16.21-37.03,34.77-61.5,37.05-13.87,1.3-27.23-4.14-40.83-4.97-26.55-1.62-39.81,14.94-54.75,32.73-17,20.24-34.84,35.97-43.63,55.85-8.08,18.28-9.08,37.19-6.78,58.91,2.3,21.72,8.81,48.57,19.04,71.2Z"/>
      <path class="cls-16" d="M55.38,348.89c8.45,17.75,25.37,26.43,39.82,34.42,15.45,8.55,30.03,16.98,47.83,25.14,17.8,8.16,38.76,17.83,58.78,31.43,15.35,10.43,33.71,13.97,49.96,12.19,20.69-2.27,40.13-13.42,52.34-31.09,11-15.92,17.93-37.29,25.62-56.04,7.3-17.81,7.44-33.19,12.93-49.1,7.05-20.43,9.89-42.2,19.72-64.31,7.55-16.98,17.57-32.99,26.32-49.01,10.42-19.08,20.58-38.68,22.39-59.77,1.81-21.09-4.92-42.26-18.22-57.42-16.27-18.54-42.82-27.79-69.17-24-26.35,3.79-51.36,18.9-72.05,37.39-18.05,16.14-36.21,34.94-60.4,37.2-13.95,1.31-27.34-4.41-41.03-5.46-26.89-2.06-39.86,14.48-55.28,32.09-17.68,20.2-36.73,35.4-46.96,55.33-9.27,18.06-11.86,37.22-10.61,59.25,1.25,22.04,7.26,49.21,17.98,71.74Z"/>
      <path class="cls-38" d="M52.83,350.19c9.08,18.19,26.95,27.02,42.62,34.69s32.31,15.47,50.98,22.88c18.67,7.41,40.28,16.47,60.52,30.16,14.79,10.01,32.24,11.57,47.85,12.93,20.46,1.79,40.17-11.46,52.88-28.41,11.58-15.46,19-36.54,26.18-55.4s6.24-34.31,10.99-50.93c5.87-20.52,8.66-42.63,18.78-64.41,7.42-15.98,17.09-31.07,25.75-46.02,10.71-18.49,21.3-37.42,23.78-58.08,2.48-20.66-3.3-41.71-15.73-57.16-15.51-19.28-41.87-29.49-68.3-26.35-26.43,3.15-51.66,17.96-72.18,36.55-17.74,16.06-35.39,35.11-59.29,37.34-14.03,1.33-27.46-4.69-41.22-5.96-27.23-2.5-39.91,14.02-55.8,31.46-18.36,20.14-38.6,34.85-50.28,54.81-10.46,17.85-14.64,37.25-14.44,59.6.21,22.36,5.71,49.84,16.92,72.29Z"/>
      <path class="cls-1" d="M50.28,351.49c9.73,18.61,28.54,27.63,45.42,34.95,17.44,7.56,34.59,13.97,54.12,20.62,19.53,6.66,41.8,15.12,62.25,28.9,14.24,9.59,30.85,11.67,45.74,13.67,20.12,2.7,40.22-9.49,53.41-25.73,12.17-14.98,20.06-35.78,26.75-54.75s5.09-35.43,9.06-52.76c4.73-20.62,7.42-43.07,17.83-64.51,7.28-15,16.62-29.14,25.18-43.03,11.02-17.9,22.03-36.16,25.18-56.4,3.15-20.24-1.66-41.16-13.24-56.91-14.73-20.02-40.93-31.2-67.43-28.69-26.5,2.51-51.96,17.03-72.31,35.7-17.42,15.99-34.57,35.27-58.19,37.49-14.12,1.34-27.57-4.97-41.42-6.45-27.57-2.95-39.97,13.55-56.33,30.82-19.04,20.09-40.46,34.32-53.61,54.3-11.64,17.66-17.42,37.28-18.27,59.95-.84,22.68,4.18,50.46,15.86,72.83Z"/>
      <path class="cls-15" d="M47.72,352.79c10.38,19.03,30.13,28.27,48.22,35.21s36.87,12.46,57.27,18.37c20.4,5.91,43.32,13.77,63.99,27.63,13.68,9.18,29.45,11.85,43.62,14.41,19.79,3.58,40.28-7.51,53.95-23.04,12.76-14.5,21.11-35.03,27.31-54.11,6.24-19.2,3.97-36.56,7.12-54.59,3.62-20.74,6.16-43.52,16.88-64.62,7.12-14.02,16.17-27.19,24.61-40.04,11.36-17.29,22.75-34.9,26.57-54.71,3.83-19.81,0-40.62-10.75-56.66-13.93-20.78-39.99-32.9-66.55-31.04-26.57,1.87-52.25,16.09-72.44,34.86-17.11,15.91-33.75,35.44-57.09,37.64-14.2,1.35-27.69-5.25-41.61-6.95-27.9-3.4-40.03,13.08-56.86,30.18-19.72,20.03-42.31,33.81-56.94,53.78-12.81,17.48-20.21,37.31-22.1,60.3-1.89,22.99,2.64,51.08,14.8,73.37Z"/>
      <path class="cls-29" d="M45.17,354.09c11.04,19.44,31.74,28.92,51.02,35.47,19.52,6.63,39.15,10.96,60.42,16.11,21.27,5.15,44.84,12.42,65.72,26.36,13.13,8.76,27.72,13.97,41.51,15.15,19.9,1.71,40.34-5.52,54.49-20.36,13.35-14,22.15-34.27,27.88-53.47s2.9-37.7,5.18-56.42c2.55-20.89,4.88-43.98,15.93-64.72,6.95-13.05,15.73-25.24,24.04-37.05,11.72-16.66,23.47-33.64,27.97-53.03,4.5-19.39,1.66-40.08-8.27-56.41-13.1-21.54-39.04-34.61-65.68-33.38-26.64,1.23-52.55,15.15-72.57,34.02-16.8,15.84-32.94,35.61-55.98,37.79-14.28,1.36-27.8-5.53-41.8-7.44-28.24-3.85-40.09,12.61-57.39,29.54-20.41,19.96-44.17,33.32-60.27,53.26-13.99,17.32-22.99,37.34-25.92,60.65-2.94,23.31,1.11,51.68,13.74,73.91Z"/>
      <path class="cls-28" d="M42.62,355.39c11.71,19.83,33.37,29.59,53.81,35.74,20.59,6.19,41.43,9.45,63.57,13.85,22.13,4.4,46.35,11.08,67.46,25.1,12.57,8.35,26.21,14.02,39.4,15.89,19.69,2.79,40.41-3.53,55.03-17.68,13.95-13.5,23.18-33.52,28.44-52.83s1.86-38.86,3.24-58.25c1.5-21.06,3.57-44.46,14.98-64.82,6.77-12.08,15.31-23.27,23.46-34.06,12.1-16.01,24.19-32.38,29.37-51.34,5.17-18.96,3.34-39.55-5.78-56.16-12.25-22.31-38.1-36.31-64.81-35.73-26.71.59-52.86,14.21-72.7,33.17-16.49,15.76-32.12,35.77-54.88,37.94-14.36,1.37-27.91-5.81-42-7.93-28.58-4.31-40.15,12.14-57.92,28.9-21.09,19.9-46.02,32.84-63.6,52.74-15.17,17.17-25.77,37.37-29.75,61-3.99,23.63-.41,52.28,12.68,74.46Z"/>
      <path class="cls-26" d="M40.06,356.69c12.39,20.22,35,30.26,56.61,36,21.67,5.75,43.71,7.95,66.71,11.6,23,3.65,47.86,9.74,69.19,23.83,12.01,7.94,24.69,14.1,37.29,16.63,19.45,3.91,40.47-1.52,55.57-14.99s24.21-32.76,29.01-52.18c5.09-20.59.86-40.04,1.31-60.08.48-21.26,2.23-44.96,14.03-64.92,6.58-11.13,14.91-21.29,22.89-31.06,12.51-15.32,24.92-31.12,30.76-49.66,5.84-18.54,5.04-39.01-3.29-55.9-11.38-23.07-37.15-38.02-63.93-38.07-26.78-.05-53.16,13.26-72.84,32.33-16.18,15.68-31.3,35.94-53.77,38.09-14.45,1.39-28.02-6.09-42.19-8.43-28.91-4.77-40.21,11.66-58.45,28.26-21.78,19.83-47.87,32.37-66.93,52.22-16.36,17.04-28.55,37.39-33.58,61.35-5.03,23.95-1.93,52.87,11.62,75Z"/>
      <path class="cls-10" d="M37.51,357.99c13.07,20.61,36.65,30.94,59.41,36.26,22.78,5.32,45.99,6.44,69.86,9.34,23.87,2.9,49.37,8.4,70.93,22.57,11.46,7.53,23.14,14.19,35.17,17.37,19.19,5.07,40.54.49,56.1-12.31,15.16-12.47,25.23-32,29.57-51.54,4.68-21.05-.12-41.24-.63-61.91s.85-45.49,13.09-65.03c6.38-10.19,14.52-19.28,22.32-28.07,12.96-14.6,25.64-29.86,32.16-47.97,6.52-18.11,6.76-38.46-.8-55.65-10.49-23.84-36.21-39.72-63.06-40.42-26.85-.69-53.46,12.32-72.97,31.48-15.87,15.6-30.48,36.11-52.67,38.23-14.53,1.4-28.14-6.38-42.39-8.92-29.24-5.23-40.27,11.18-58.98,27.63-22.47,19.76-49.73,31.92-70.26,51.71-17.54,16.91-31.33,37.42-37.41,61.7-6.08,24.27-3.45,53.45,10.56,75.54Z"/>
      <path class="cls-46" d="M34.96,359.28c13.76,20.98,38.3,31.63,62.21,36.52s48.28,4.94,73.01,7.08c24.73,2.14,50.88,7.07,72.66,21.3,10.9,7.12,21.58,14.3,33.06,18.11,18.89,6.27,40.61,2.52,56.64-9.63,15.77-11.94,26.24-31.23,30.14-50.9,4.27-21.51-1.07-42.47-2.57-63.74-1.53-21.76-.56-46.05,12.14-65.13,6.16-9.26,14.14-17.25,21.75-25.08,13.45-13.83,26.36-28.6,33.55-46.29,7.19-17.69,8.49-37.91,1.68-55.4-9.57-24.59-35.27-41.43-62.19-42.76-26.92-1.33-53.8,11.34-73.1,30.64-15.59,15.49-29.66,36.27-51.56,38.38-14.61,1.41-28.25-6.66-42.58-9.42-29.58-5.69-40.34,10.7-59.51,26.99-23.16,19.68-51.59,31.47-73.59,51.19-18.74,16.79-34.12,37.45-41.24,62.05-7.13,24.59-4.97,54.02,9.51,76.08Z"/>
      <path class="cls-31" d="M32.41,360.58c14.46,21.34,39.97,32.31,65,36.78s50.56,3.43,76.16,4.82c25.6,1.39,52.36,5.77,74.4,20.03,10.33,6.73,19.98,14.41,30.95,18.85,18.54,7.5,40.67,4.55,57.18-6.94s27.24-30.46,30.7-50.25c3.84-21.96-2.01-43.72-4.51-65.57-2.52-22.07-2.03-46.66,11.19-65.23,5.94-8.34,13.76-15.2,21.18-22.09,13.97-12.98,27.08-27.34,34.95-44.6,7.86-17.26,10.23-37.35,4.17-55.15-8.63-25.34-34.32-43.13-61.31-45.11-26.99-1.97-54.09,10.41-73.23,29.8-15.27,15.42-28.84,36.44-50.46,38.53-14.69,1.42-28.35-6.96-42.77-9.91-29.9-6.18-40.42,10.18-60.04,26.35-23.88,19.56-53.46,31.04-76.92,50.67-19.93,16.68-36.9,37.48-45.07,62.39-8.18,24.91-6.49,54.59,8.45,76.62Z"/>
      <path class="cls-22" d="M71.37,221.97c-21.14,16.58-39.68,37.51-48.9,62.74-9.22,25.23-8,55.15,7.39,77.17,15.17,21.7,41.64,33,67.8,37.05,26.16,4.05,52.84,1.93,79.31,2.57,26.47.64,53.88,4.42,76.13,18.77,9.78,6.31,18.35,14.53,28.83,19.59,18.15,8.76,40.74,6.59,57.72-4.26,16.98-10.85,28.24-29.69,31.27-49.61,3.41-22.42-2.94-44.99-6.45-67.4-3.51-22.4-3.56-47.34,10.24-65.33,5.71-7.45,13.38-13.11,20.61-19.1,14.53-12.05,27.81-26.08,36.34-42.92,8.53-16.84,11.98-36.78,6.66-54.9-7.66-26.09-33.38-44.84-60.44-47.45-27.06-2.61-54.39,9.48-73.36,28.95-14.96,15.35-28.02,36.61-49.36,38.68-14.77,1.43-28.47-7.23-42.97-10.41-30.24-6.62-40.46,9.72-60.57,25.71-24.54,19.52-55.33,30.61-80.25,50.15Z"/>
    </g>
  </g>
</svg>