<?xml version="1.0" encoding="utf-8"?>
<!-- Generator: Adobe Illustrator 16.0.3, SVG Export Plug-In . SVG Version: 6.00 Build 0)  -->
<!DOCTYPE svg PUBLIC "-//W3C//DTD SVG 1.1//EN" "http://www.w3.org/Graphics/SVG/1.1/DTD/svg11.dtd">
<svg version="1.1" id="Capa_1" xmlns="http://www.w3.org/2000/svg" xmlns:xlink="http://www.w3.org/1999/xlink" x="0px" y="0px"
	 width="50px" height="50px" viewBox="0 0 50 50" enable-background="new 0 0 50 50" xml:space="preserve">
<path fill="#063565" d="M48.741,26.127c0,12.543-10.168,22.711-22.711,22.711S3.319,38.67,3.319,26.127
	c0-12.542,10.168-22.71,22.711-22.71S48.741,13.584,48.741,26.127"/>
<g>
	<path fill="none" stroke="#FFFFFF" stroke-linecap="round" stroke-linejoin="round" stroke-miterlimit="10" d="M11.556,20.638
		l9.903,3.514c0.114,0.04,0.238,0.039,0.351-0.005l14.024-5.36c0.722-0.275,1.069-1.096,0.765-1.806l-2.015-4.699
		c-0.288-0.671-1.055-0.995-1.736-0.734l-21.303,8.139C11.104,19.854,11.111,20.48,11.556,20.638z"/>
	<path fill="none" stroke="#FFFFFF" stroke-linecap="round" stroke-linejoin="round" stroke-miterlimit="10" d="M32.024,23.196
		l4.771-2.032c0.718-0.266,1.092-1.057,0.843-1.78l-1.12-2.594"/>
	<path fill="none" stroke="#FFFFFF" stroke-linecap="round" stroke-linejoin="round" stroke-miterlimit="10" d="M29.465,24.181
		v6.826c0,1.137,0.922,2.059,2.059,2.059h5.369c0.251,0,0.455,0.204,0.455,0.455v4.575c0,0.251,0.203,0.455,0.455,0.455h2.308
		V25.995h-2.227c-0.251,0-0.455,0.204-0.455,0.455v3.479c0,0.251-0.204,0.455-0.455,0.455h-4.494c-0.251,0-0.455-0.204-0.455-0.455
		v-6.732"/>
	<path fill="none" stroke="#FFFFFF" stroke-linecap="round" stroke-linejoin="round" stroke-miterlimit="10" d="M13.817,21.588
		c-0.113-0.038-0.408,0.106-0.515,0.157l-0.919,0.443c-0.212,0.103-0.312,0.351-0.228,0.571l1.482,3.908
		c0.088,0.23,0.343,0.35,0.576,0.269l1.443-0.506c0.183-0.063,0.305-0.235,0.305-0.429l0,0c0-0.168,0.093-0.323,0.241-0.402
		l0.166-0.088c0.223-0.119,0.501-0.033,0.618,0.192l0.965,1.863c0.102,0.197,0.332,0.292,0.543,0.225l10.971-3.889"/>
	<path fill="none" stroke="#FFFFFF" stroke-linecap="round" stroke-linejoin="round" stroke-miterlimit="10" d="M11.556,20.638
		l9.903,3.514c0.114,0.04,0.238,0.039,0.351-0.005l14.024-5.36c0.722-0.275,1.069-1.096,0.765-1.806l-2.015-4.699
		c-0.288-0.671-1.055-0.995-1.736-0.734l-21.303,8.139C11.104,19.854,11.111,20.48,11.556,20.638z"/>
</g>
</svg>
