<?xml version="1.0" encoding="utf-8"?>
<!-- Generator: Adobe Illustrator 16.0.3, SVG Export Plug-In . SVG Version: 6.00 Build 0)  -->
<!DOCTYPE svg PUBLIC "-//W3C//DTD SVG 1.1//EN" "http://www.w3.org/Graphics/SVG/1.1/DTD/svg11.dtd">
<svg version="1.1" id="Capa_1" xmlns="http://www.w3.org/2000/svg" xmlns:xlink="http://www.w3.org/1999/xlink" x="0px" y="0px"
	 width="50px" height="50px" viewBox="0 0 50 50" enable-background="new 0 0 50 50" xml:space="preserve">
<path fill="#063565" d="M48.422,24.711c0,12.543-10.168,22.711-22.711,22.711S3,37.254,3,24.711S13.168,2,25.711,2
	S48.422,12.168,48.422,24.711"/>
<g>
	<path fill="none" stroke="#FFFFFF" stroke-linecap="round" stroke-linejoin="round" stroke-miterlimit="10" d="M22.285,28.403
		c-1.223-0.94-2.012-2.418-2.012-4.08c0-1.636,0.764-3.095,1.956-4.037"/>
	<path fill="none" stroke="#FFFFFF" stroke-linecap="round" stroke-linejoin="round" stroke-miterlimit="10" d="M28.295,20.058
		c1.368,0.924,2.269,2.49,2.269,4.266c0,1.716-0.84,3.237-2.133,4.171"/>
	<path fill="none" stroke="#FFFFFF" stroke-linecap="round" stroke-linejoin="round" stroke-miterlimit="10" d="M19.937,31.038
		c-1.945-1.589-3.186-4.007-3.186-6.714c0-2.564,1.114-4.868,2.882-6.455"/>
	<path fill="none" stroke="#FFFFFF" stroke-linecap="round" stroke-linejoin="round" stroke-miterlimit="10" d="M31.016,17.705
		c1.877,1.589,3.07,3.964,3.07,6.619c0,2.708-1.241,5.125-3.187,6.714"/>
	<path fill="none" stroke="#FFFFFF" stroke-linecap="round" stroke-linejoin="round" stroke-miterlimit="10" d="M17.556,33.184
		c-2.443-2.17-3.981-5.336-3.981-8.86c0-3.422,1.451-6.506,3.771-8.668"/>
	<path fill="none" stroke="#FFFFFF" stroke-linecap="round" stroke-linejoin="round" stroke-miterlimit="10" d="M33.238,15.427
		c2.468,2.17,4.024,5.352,4.024,8.896c0,3.598-1.604,6.821-4.136,8.994"/>
	
		<circle fill="none" stroke="#FFFFFF" stroke-linecap="round" stroke-linejoin="round" stroke-miterlimit="10" cx="25.479" cy="24.329" r="2.357"/>
</g>
</svg>
